<svg width="121" height="102" viewBox="0 0 121 102" fill="none" xmlns="http://www.w3.org/2000/svg">
<defs>
<linearGradient id="paint0_linear_771_6631" x1="61.1483" y1="53.9773" x2="59.8485" y2="0.699773" gradientUnits="userSpaceOnUse">
<stop offset="0.00534759" stop-color="#8D65F5"/>
<stop offset="0.1614" stop-color="#7765F5"/>
<stop offset="0.3149" stop-color="#6665F5"/>
<stop offset="0.406" stop-color="#5577F6"/>
<stop offset="0.6764" stop-color="#28A7F8"/>
<stop offset="0.8829" stop-color="#0CC5F9"/>
<stop offset="0.9997" stop-color="#01D0FA"/>
</linearGradient>
<linearGradient id="paint1_linear_771_6631" x1="60.4983" y1="57.1488" x2="60.4983" y2="3.84645" gradientUnits="userSpaceOnUse">
<stop stop-color="#8D65F5"/>
<stop offset="0.00828621" stop-color="#8A65F5"/>
<stop offset="0.0832" stop-color="#7665F5"/>
<stop offset="0.158" stop-color="#6A65F5"/>
<stop offset="0.2322" stop-color="#6665F5"/>
<stop offset="0.3772" stop-color="#4686F7"/>
<stop offset="0.547" stop-color="#28A6F8"/>
<stop offset="0.7111" stop-color="#13BDF9"/>
<stop offset="0.8653" stop-color="#05CBFA"/>
<stop offset="0.9997" stop-color="#01D0FA"/>
<stop offset="1" stop-color="#01D0FA"/>
</linearGradient>
<linearGradient id="paint2_linear_771_6631" x1="59.869" y1="50.509" x2="46.7835" y2="37.4046" gradientUnits="userSpaceOnUse">
<stop stop-color="#2C2864"/>
<stop offset="1" stop-color="#4C81F7" stop-opacity="0"/>
</linearGradient>
<linearGradient id="paint3_linear_771_6631" x1="60.764" y1="3.35953" x2="73.7504" y2="16.3647" gradientUnits="userSpaceOnUse">
<stop stop-color="#005567"/>
<stop offset="1" stop-color="#09C8FA" stop-opacity="0"/>
</linearGradient>
<clipPath id="clip0_771_6631">
<rect width="120.994" height="101.406" fill="white"/>
</clipPath>
</defs>
<g clip-path="url(#clip0_771_6631)">
<path d="M48.1785 62.3923C47.09 62.3923 46.1382 62.7893 45.3528 63.5747C44.5674 64.3601 44.1704 65.3077 44.1704 66.4004C44.1704 67.4932 44.5674 68.4408 45.3528 69.2262C46.1382 70.0116 47.0858 70.4085 48.1785 70.4085C49.2712 70.4085 50.2188 70.0116 51.0042 69.2262C51.7896 68.4408 52.1866 67.4932 52.1866 66.4004C52.1866 65.3077 51.7896 64.3601 51.0042 63.5747C50.2188 62.7893 49.267 62.3923 48.1785 62.3923Z" fill="#2C2C42"/>
<path d="M48.1786 72.8629C47.2523 72.8629 46.4626 73.1702 45.8394 73.7721C45.2077 74.3825 44.8833 75.185 44.8833 76.1582V97.2359C44.8833 98.1707 45.1992 98.9604 45.8266 99.5879C46.4541 100.215 47.2438 100.531 48.1786 100.531C49.1475 100.531 49.95 100.211 50.5646 99.5751C51.1665 98.9519 51.4738 98.1622 51.4738 97.2359V76.1582C51.4738 75.1935 51.1622 74.3953 50.5518 73.7849C49.9372 73.1702 49.139 72.8629 48.1786 72.8629Z" fill="#2C2C42"/>
<path d="M66.2982 97.2829V79.6413H69.444C70.3319 79.6413 71.0746 79.3723 71.6508 78.8388C72.2399 78.2967 72.5515 77.5796 72.5515 76.7728C72.5515 75.9021 72.2399 75.1551 71.6508 74.613C71.0746 74.0794 70.3319 73.8105 69.444 73.8105H66.2982V67.8688C66.2982 66.9383 65.9866 66.1529 65.3762 65.5425C64.7658 64.9321 63.9804 64.6205 63.0499 64.6205C62.1193 64.6205 61.3339 64.9321 60.7235 65.5425C60.1132 66.1529 59.8016 66.9383 59.8016 67.8688V73.8105H58.4997C57.6118 73.8105 56.8691 74.0794 56.2929 74.613C55.7038 75.1551 55.3965 75.9021 55.3965 76.7728C55.3965 77.5839 55.7081 78.2967 56.2929 78.8388C56.8691 79.3723 57.6118 79.6413 58.4997 79.6413H59.8016V97.2829C59.8016 99.0756 61.2571 100.531 63.0499 100.531C64.8426 100.531 66.2982 99.0756 66.2982 97.2829Z" fill="#2C2C42"/>
<path d="M89.7235 78.6979C90.8803 78.7064 91.9346 77.9637 92.2547 76.8496C92.4084 76.3203 92.4767 75.663 92.3913 74.8477C92.1224 72.2269 89.6125 72.5043 89.6125 72.5043C87.9137 72.5043 86.3557 72.9226 84.8574 73.6056C83.9867 74.0026 83.1927 74.4892 82.4756 75.0611C82.1299 73.6525 81.0286 72.8629 79.3468 72.8629C78.3523 72.8629 77.5541 73.1574 76.9736 73.7379C76.393 74.3184 76.1028 75.1166 76.1028 76.1112V97.2871C76.1028 98.3201 76.4016 99.1311 76.9864 99.6945C77.5626 100.249 78.3565 100.531 79.3511 100.531C80.3841 100.531 81.1951 100.232 81.7628 99.6476C82.3177 99.0713 82.5994 98.2731 82.5994 97.2871V83.4572C82.5994 81.9675 83.1671 80.8193 84.3324 79.9443C85.5617 79.0223 87.2478 78.5912 89.3137 78.6936C89.4076 78.6936 89.557 78.6979 89.7235 78.6979Z" fill="#2C2C42"/>
<path d="M119.151 79.5815C117.925 77.4515 116.239 75.7484 114.144 74.5233C112.044 73.2982 109.67 72.675 107.092 72.675C104.518 72.675 102.132 73.2982 99.9979 74.519C97.8636 75.7441 96.1691 77.4515 94.9568 79.5857C93.7488 81.7157 93.1384 84.1188 93.1384 86.7226C93.1384 89.3221 93.7061 91.7125 94.8245 93.8339C95.9514 95.9681 97.5222 97.6713 99.4985 98.8878C101.479 100.104 103.711 100.723 106.14 100.723C108.095 100.723 109.943 100.313 111.638 99.4982C112.654 99.0116 113.584 98.4012 114.425 97.6755C114.502 98.4396 114.814 99.0969 115.352 99.6348C115.979 100.262 116.769 100.578 117.704 100.578C118.638 100.578 119.428 100.262 120.055 99.6348C120.683 99.0073 120.999 98.2176 120.999 97.2828V86.7183C120.995 84.1146 120.376 81.7114 119.151 79.5815ZM114.596 86.7226C114.596 88.2422 114.267 89.6209 113.614 90.8289C112.966 92.0241 112.061 92.9802 110.925 93.6674C109.794 94.3547 108.501 94.7004 107.092 94.7004C105.683 94.7004 104.394 94.3547 103.259 93.6674C102.119 92.9759 101.202 92.0198 100.54 90.8204C99.8741 89.6166 99.5369 88.2379 99.5369 86.7226C99.5369 85.2073 99.8741 83.8158 100.544 82.595C101.206 81.3827 102.119 80.4181 103.259 79.7266C104.394 79.0394 105.683 78.6936 107.092 78.6936C108.501 78.6936 109.79 79.0394 110.925 79.7266C112.061 80.4138 112.966 81.3785 113.614 82.5865C114.267 83.8115 114.596 85.1988 114.596 86.7226Z" fill="#2C2C42"/>
<path d="M35.3901 75.5137C33.5333 73.5374 31.0789 72.5343 28.0953 72.5343C26.2385 72.5343 24.5183 72.8971 22.9859 73.61C21.8206 74.1521 20.173 75.4625 19.268 76.3546L19.1784 76.4357C18.2735 75.5436 16.3527 74.1563 15.1788 73.61C13.6465 72.8971 11.9263 72.5343 10.0695 72.5343C7.08153 72.5343 4.62716 73.5374 2.77464 75.5137C0.934923 77.4729 0.00439453 80.209 0.00439453 83.6452V97.1933C0.00439453 98.1196 0.311725 98.9092 0.913581 99.5324C1.52824 100.168 2.33072 100.489 3.29966 100.489C4.23446 100.489 5.02413 100.173 5.65159 99.5452C6.27906 98.9178 6.59493 98.1281 6.59493 97.1933V83.6452C6.59493 81.9634 6.99616 80.6956 7.79437 79.8761C8.59258 79.0523 9.64689 78.651 11.0256 78.651C12.4257 78.651 13.5397 79.1163 14.4319 80.0767C15.341 81.0542 15.785 82.2835 15.785 83.8372V97.1976C15.785 98.1238 16.0923 98.9135 16.6942 99.5367C17.3045 100.168 18.107 100.493 19.0802 100.493C19.0845 100.493 19.0888 100.493 19.093 100.493C19.0973 100.493 19.1016 100.493 19.1058 100.493C20.0748 100.493 20.8773 100.173 21.4919 99.5367C22.098 98.9135 22.4011 98.1238 22.4011 97.1976V83.8372C22.4011 82.2835 22.8408 81.0542 23.7542 80.0767C24.6463 79.1163 25.7604 78.651 27.1605 78.651C28.5349 78.651 29.5935 79.0523 30.3917 79.8761C31.1856 80.6956 31.5911 81.9676 31.5911 83.6452V97.1933C31.5911 98.1281 31.907 98.9178 32.5345 99.5452C33.1619 100.173 33.9516 100.489 34.8864 100.489C35.8554 100.489 36.6578 100.168 37.2725 99.5324C37.8743 98.9092 38.1817 98.1196 38.1817 97.1933V83.6452C38.1603 80.2133 37.2298 77.4772 35.3901 75.5137Z" fill="#2C2C42"/>
<path d="M37.2128 19.2039L52.3659 4.05079C56.8521 -0.435386 64.1512 -0.435386 68.6373 4.05079L83.7904 19.2039C85.9588 21.3723 87.1497 24.2578 87.1497 27.3396C87.1497 30.4172 85.9546 33.3069 83.7904 35.4753L68.6373 50.6284C64.1512 55.1146 56.8521 55.1146 52.3659 50.6284L37.2128 35.4753C35.0444 33.3069 33.8535 30.4215 33.8535 27.3396C33.8535 24.2578 35.0444 21.3723 37.2128 19.2039ZM78.7835 24.2023L63.6304 9.04918C62.7981 8.21682 61.684 7.7601 60.4974 7.7601C59.3065 7.7601 58.1924 8.21682 57.3643 9.04918L42.2112 24.2023C41.3788 25.0346 40.9221 26.1444 40.9221 27.3353C40.9221 28.5262 41.3788 29.6403 42.2112 30.4684L57.3643 45.6215C58.1966 46.4539 59.3107 46.9106 60.4974 46.9106C61.6883 46.9106 62.8023 46.4539 63.6304 45.6215L78.7835 30.4684C79.6159 29.6361 80.0726 28.522 80.0726 27.3353C80.0726 26.1487 79.6159 25.0346 78.7835 24.2023Z" fill="url(#paint0_linear_771_6631)"/>
<path d="M37.2128 19.2039L52.3659 4.05079C56.8521 -0.435386 64.1512 -0.435386 68.6373 4.05079L83.7904 19.2039C85.9588 21.3723 87.1497 24.2578 87.1497 27.3396C87.1497 30.4172 85.9546 33.3069 83.7904 35.4753L68.6373 50.6284C64.1512 55.1146 56.8521 55.1146 52.3659 50.6284L37.2128 35.4753C35.0444 33.3069 33.8535 30.4215 33.8535 27.3396C33.8535 24.2578 35.0444 21.3723 37.2128 19.2039ZM78.7835 24.2023L63.6304 9.04918C62.7981 8.21682 61.684 7.7601 60.4974 7.7601C59.3065 7.7601 58.1924 8.21682 57.3643 9.04918L42.2112 24.2023C41.3788 25.0346 40.9221 26.1444 40.9221 27.3353C40.9221 28.5262 41.3788 29.6403 42.2112 30.4684L57.3643 45.6215C58.1966 46.4539 59.3107 46.9106 60.4974 46.9106C61.6883 46.9106 62.8023 46.4539 63.6304 45.6215L78.7835 30.4684C79.6159 29.6361 80.0726 28.522 80.0726 27.3353C80.0726 26.1487 79.6159 25.0346 78.7835 24.2023Z" fill="url(#paint1_linear_771_6631)"/>
<path d="M63.1139 45.9971L57.8808 51.162C56.6557 52.4383 54.6538 52.609 53.2708 51.512C53.258 51.5035 53.2452 51.4907 53.2324 51.4821C53.2324 51.4821 50.9957 49.4674 50.2188 48.5753C49.8219 48.1143 47.7815 46.0782 45.8906 44.2044C44.2088 42.5354 44.6613 39.7054 46.7827 38.6468L46.9748 38.5486C48.3066 37.8828 49.9201 38.1431 50.9744 39.1975L57.0313 45.2544C57.0313 45.2544 58.2436 46.7143 60.0961 46.821C61.9444 46.9277 63.1139 45.9971 63.1139 45.9971Z" fill="url(#paint2_linear_771_6631)"/>
<path d="M58.4526 8.31925L63.1906 3.50867C64.4072 2.23666 66.3963 2.06592 67.7707 3.16292C67.7835 3.17146 67.7963 3.18427 67.8091 3.1928C67.8091 3.1928 69.9434 5.29716 70.7757 6.12952C71.2282 6.58624 73.2258 8.57535 75.104 10.4449C76.7772 12.1097 76.3248 14.9269 74.2204 15.9812L74.0283 16.0793C72.7051 16.7452 71.1044 16.4848 70.033 15.4818L63.9504 9.51869C63.9504 9.51869 62.8278 7.93935 60.9924 7.83264C59.1527 7.72593 58.4526 8.31925 58.4526 8.31925Z" fill="url(#paint3_linear_771_6631)"/>
</g>
</svg>
